<svg width="41" height="33" viewBox="0 0 41 33" fill="none" xmlns="http://www.w3.org/2000/svg">
<path d="M40.0832 0.831299C38.5557 1.73801 35.4909 2.97372 33.6892 3.33013C33.6363 3.34384 33.5933 3.36147 33.5423 3.37517C31.9502 1.80459 29.7686 0.831299 27.354 0.831299C22.4875 0.831299 18.5415 4.77734 18.5415 9.6438C18.5415 9.90034 18.52 10.3723 18.5415 10.623C11.9752 10.623 6.97755 7.18413 3.3938 2.78963C3.00409 3.7688 2.83371 5.31588 2.83371 6.76897C2.83371 9.51259 4.97809 12.2073 8.31705 13.8777C7.70213 14.0363 7.02455 14.1499 6.31955 14.1499C5.18175 14.1499 3.97738 13.8503 2.87484 12.9416C2.87484 12.9749 2.87484 13.0063 2.87484 13.0415C2.87484 16.8759 6.94425 19.4864 10.5633 20.2129C9.82888 20.6457 8.34838 20.6888 7.62575 20.6888C7.11659 20.6888 5.31492 20.4558 4.83317 20.3657C5.83975 23.5088 9.4705 25.2752 12.9309 25.3379C10.2245 27.4607 8.34642 28.248 2.80434 28.248H0.916504C4.418 30.4922 8.87713 32.1666 13.346 32.1666C27.8965 32.1666 36.1665 21.0765 36.1665 10.623C36.1665 10.4545 36.1626 10.102 36.1567 9.74759C36.1567 9.71234 36.1665 9.67905 36.1665 9.6438C36.1665 9.59092 36.1508 9.54001 36.1508 9.48713C36.145 9.2208 36.1391 8.97209 36.1332 8.84284C37.6803 7.72659 39.0218 6.33422 40.0832 4.74797C38.6634 5.37855 37.1398 5.80155 35.5398 5.99347C37.1731 5.0143 39.4937 2.67997 40.0832 0.831299Z" fill="white"/>
</svg>
